<svg xmlns="http://www.w3.org/2000/svg" width="661" height="171" viewBox="0 0 661 171" fill="none"><g clip-path="url(#clip0_2110_507)"><g clip-path="url(#clip1_2110_507)"><g clip-path="url(#clip2_2110_507)"><path d="M87.37 150.092C85.2588 149.696 83.1476 149.399 81.0693 148.871C65.8618 144.88 55.4046 131.354 55.3716 115.718C55.3716 102.919 55.3716 90.1194 55.3716 77.32C55.3716 76.7262 55.3716 76.1654 55.3716 75.4727H68.9297C68.9297 76.1984 68.9297 76.8582 68.9297 77.4849C68.9297 90.0864 68.9297 102.655 68.9297 115.256C68.9297 127 77.5066 135.94 89.2504 136.501C99.9715 136.995 110.033 127.924 110.528 117.203C110.66 113.937 110.594 110.671 110.594 107.405C110.594 97.3768 110.594 87.3814 110.594 77.353C110.594 76.7592 110.594 76.1984 110.594 75.5056H124.185C124.185 76.2314 124.185 76.8582 124.185 77.4849C124.185 90.0864 124.185 102.655 124.185 115.256C124.185 125.12 130.321 133.235 139.623 135.775C152.555 139.338 165.585 129.672 165.915 116.279C165.915 115.223 165.915 114.201 165.915 113.31C170.137 116.411 174.327 119.446 178.846 122.745C178.318 124.361 177.856 126.505 176.966 128.485C171.556 140.888 162.121 148.079 148.629 149.861C148.266 149.894 147.903 150.059 147.573 150.125H142.427C142.13 150.026 141.833 149.894 141.537 149.861C133.553 149.036 126.725 145.77 120.985 140.228C119.731 139.008 118.61 137.655 117.356 136.303C116.993 136.699 116.696 137.061 116.367 137.424C111.187 143.659 104.623 147.618 96.6727 149.333C95.2872 149.63 93.8687 149.861 92.4502 150.092H87.3041H87.37Z" fill="white"></path><path d="M659.869 73.9211C653.931 75.1087 647.993 76.2963 642.056 77.4508C628.695 80.0569 615.302 82.63 601.942 85.236C601.513 85.302 601.117 85.434 600.523 85.5989C600.754 86.1927 600.919 86.7205 601.15 87.2153C604.878 95.3634 611.476 99.7178 620.118 101.202C624.803 102.027 629.52 101.895 634.171 100.74C639.416 99.4539 643.87 96.7819 647.696 92.6584C650.171 95.5943 652.579 98.4313 655.185 101.532C653.469 103.116 651.886 104.765 650.072 106.15C644.431 110.505 637.899 112.616 630.873 113.276C620.976 114.2 611.443 112.88 602.8 107.635C592.606 101.433 587.163 92.1635 585.778 80.4857C584.788 72.2717 585.877 64.3216 589.769 56.9322C595.905 45.2545 605.769 38.9207 618.832 37.5682C627.937 36.6116 636.514 38.3599 644.134 43.5391C653.304 49.7408 658.253 58.5487 659.572 69.4677C659.638 69.9955 659.77 70.4903 659.869 71.0182V73.9211ZM598.775 76.0324C614.675 73.0304 630.444 70.0615 646.212 67.0926C645.123 56.1075 632.654 47.4976 620.052 48.9161C604.35 50.7305 597.785 64.1896 598.742 76.0324H598.775Z" fill="white"></path><path d="M27.8235 38.1607H40.6229V45.1541C58.9313 33.7403 75.2604 35.9175 89.9401 51.5868C90.9297 50.4982 91.9524 49.2117 93.14 48.0901C103.333 38.4906 115.275 35.4556 128.503 39.975C141.599 44.4284 149.22 53.962 151.496 67.619C151.793 69.3674 151.826 71.1488 151.859 72.8971C151.859 85.5976 151.859 98.298 151.859 110.965C151.859 111.493 151.826 112.021 151.793 112.615H138.268V110.767C138.268 98.0341 138.268 85.2677 138.268 72.5343C138.268 61.7472 129.988 52.5105 119.596 51.6858C108.183 50.7951 98.484 58.2834 96.8016 69.3674C96.5707 70.8519 96.5707 72.3693 96.5707 73.8538C96.5707 86.1254 96.5707 98.3969 96.5707 110.636V112.615H82.9466V110.734C82.9466 98.0011 82.9466 85.2347 82.9466 72.5013C82.9466 62.3739 75.8872 53.863 66.1227 51.9827C53.2243 49.5416 41.3486 59.1741 41.2497 72.3033C41.1837 84.1461 41.2497 95.9888 41.2497 107.832C41.2497 109.382 41.2497 110.932 41.2497 112.615H27.7905V38.1607H27.8235Z" fill="white"></path><path d="M229.807 48.6576V38.1674H243.365V112.688H230.533V101.406C230.203 101.505 230.005 101.538 229.939 101.604C223.012 110.213 213.808 113.677 203.021 113.512C191.475 113.347 181.644 109.323 174.189 100.284C169.01 93.9833 166.536 86.5939 166.041 78.5448C165.513 69.671 166.965 61.2261 171.946 53.6718C178.313 44.0063 187.516 38.9261 198.897 37.6066C205.462 36.8479 211.862 37.5406 217.997 40.1137C222.55 42.027 226.343 44.897 229.774 48.6246L229.807 48.6576ZM179.731 72.508C179.731 90.5855 189.628 101.142 204.373 101.669C215.622 102.098 225.354 95.2698 228.686 84.5817C229.972 80.4582 230.335 76.2027 229.84 71.8812C228.751 62.5456 224.496 55.2223 215.622 51.4616C206.419 47.569 197.38 48.2618 189.298 54.3646C182.403 59.5437 179.797 66.933 179.764 72.475L179.731 72.508Z" fill="white"></path><path d="M401.566 92.2947C404.37 95.6265 406.745 98.4634 409.252 101.432C408.361 102.356 407.537 103.313 406.613 104.17C401.236 109.152 394.803 111.89 387.612 112.912C378.177 114.298 368.941 113.572 360.265 109.35C348.059 103.412 341.429 93.4822 339.911 80.155C338.789 70.4895 340.571 61.3518 346.08 53.1708C352.48 43.6702 361.584 38.656 372.932 37.5014C382.631 36.5448 391.669 38.5241 399.554 44.3629C407.999 50.5977 412.551 59.1416 413.705 69.4999C413.837 70.5555 413.903 71.6441 413.969 72.6997C413.969 73.0296 413.969 73.3265 413.969 73.9203C394.242 77.7469 374.549 81.5735 354.69 85.4661C354.855 85.9939 354.954 86.4558 355.152 86.8516C358.813 95.1646 365.444 99.651 374.219 101.135C379.134 101.993 384.049 101.828 388.898 100.542C393.22 99.3871 397.046 97.2759 400.279 94.142C400.774 93.6802 401.038 92.9874 401.533 92.2617L401.566 92.2947ZM400.444 67.0917C398.696 55.0841 386.226 47.002 372.602 49.2122C357.56 51.6203 351.952 65.3764 352.974 76.0315C368.809 73.0626 384.643 70.0607 400.444 67.0917Z" fill="white"></path><path d="M496.188 112.685H482.629V110.739C482.629 97.6754 482.629 84.6121 482.629 71.5488C482.629 69.1407 482.432 66.6996 481.97 64.3574C480.221 55.7145 474.91 50.8983 466.069 49.7437C461.748 49.1829 457.46 49.4798 453.336 50.8983C445.056 53.7352 440.636 59.838 439.25 68.283C438.92 70.2293 438.821 72.2416 438.821 74.1879C438.788 86.3605 438.821 98.5001 438.821 110.673V112.685H425.263V38.1649H438.227V48.787C438.524 48.6221 438.689 48.5891 438.755 48.4901C444.132 41.7276 451.456 38.6927 459.769 37.6371C465.146 36.9773 470.523 37.1752 475.735 38.6927C487.314 42.0904 493.713 50.0406 495.561 61.7514C495.99 64.5553 496.155 67.3923 496.188 70.2293C496.254 83.6884 496.188 97.1146 496.188 110.574V112.685Z" fill="white"></path><path d="M328.478 112.685H315.085C315.052 111.992 314.986 111.332 314.986 110.673C314.986 97.1145 314.986 83.5564 314.887 70.0313C314.887 67.7881 314.59 65.5119 314.062 63.3677C312.281 55.9124 307.531 51.36 299.944 49.9415C295.127 49.0508 290.278 49.2818 285.627 50.8652C277.611 53.6032 273.157 59.4421 271.706 67.6231C271.277 69.9323 271.112 72.3075 271.112 74.6496C271.046 86.6573 271.112 98.6319 271.112 110.64V112.619H257.653V38.1978H270.551V48.754C270.881 48.589 271.046 48.556 271.145 48.4571C275.862 42.5192 282.196 39.3853 289.486 38.0658C296.348 36.8123 303.209 36.9442 309.84 39.2864C319.967 42.8491 325.773 50.1724 327.72 60.5637C328.28 63.5986 328.544 66.7325 328.577 69.8333C328.676 83.5894 328.61 97.3784 328.61 111.134C328.61 111.596 328.544 112.091 328.511 112.718L328.478 112.685Z" fill="white"></path><path d="M577.302 53.2724C573.806 55.5155 570.441 57.6928 567.043 59.87C566.086 58.6824 565.262 57.5608 564.305 56.5712C559.027 50.9302 552.33 48.819 544.776 49.2808C532.472 50.0395 523.631 57.6928 521.519 69.7334C519.87 79.102 521.552 87.7779 528.546 94.8374C537.684 104.041 557.279 105.031 566.35 91.8684C566.515 91.6045 566.746 91.3736 567.01 91.0437C570.408 93.188 573.74 95.2662 577.236 97.4764C576.874 98.1032 576.61 98.631 576.28 99.1588C571.431 106.548 564.47 110.936 555.893 112.585C543.325 115.059 531.482 113.212 521.157 105.163C512.778 98.598 508.357 89.8232 507.401 79.267C506.708 71.5808 507.763 64.1584 511.458 57.3299C517.924 45.3222 528.315 39.1535 541.675 37.636C548.702 36.8443 555.596 37.537 562.227 40.2091C568.659 42.8151 573.674 47.0376 577.269 53.3053L577.302 53.2724Z" fill="white"></path><path d="M0.128418 112.616V38.1953H13.5216V112.649H0.128418V112.616Z" fill="white"></path></g></g></g><defs><clipPath id="clip0_2110_507"><rect width="660.019" height="112.819" fill="white" transform="translate(0 37.2715)"></rect></clipPath><clipPath id="clip1_2110_507"><rect width="660.019" height="112.819" fill="white" transform="translate(0 37.2715)"></rect></clipPath><clipPath id="clip2_2110_507"><rect width="659.762" height="112.819" fill="white" transform="translate(0.128418 37.2715)"></rect></clipPath></defs></svg>